<?xml version="1.0" encoding="utf-8"?>
<!-- Generator: Adobe Illustrator 21.1.0, SVG Export Plug-In . SVG Version: 6.00 Build 0)  -->
<svg version="1.1" id="Layer_1" xmlns="http://www.w3.org/2000/svg" xmlns:xlink="http://www.w3.org/1999/xlink" x="0px" y="0px"
	 viewBox="0 0 16 16" style="enable-background:new 0 0 16 16;" xml:space="preserve">
<style type="text/css">
	.st0{fill:#4D4D4D;}
</style>
<path class="st0" d="M4.5,9.4H3.2c-0.3,0-0.5,0.2-0.5,0.5s0.2,0.5,0.5,0.5h1.3c0.3,0,0.5-0.2,0.5-0.5S4.8,9.4,4.5,9.4z"/>
<path class="st0" d="M9.3,9.4H6.2c-0.3,0-0.5,0.2-0.5,0.5s0.2,0.5,0.5,0.5h3.2c0.3,0,0.5-0.2,0.5-0.5S9.6,9.4,9.3,9.4z"/>
<path class="st0" d="M14,2H2C0.9,2,0,2.9,0,4v8c0,1.1,0.9,2,2,2h12c1.1,0,2-0.9,2-2V4C16,2.9,15.1,2,14,2z M14,12H2V7.7h12V12z
	 M14,6H2V4h12V6z"/>
</svg>
